<?xml version="1.0" encoding="UTF-8"?>
<svg width="61px" height="61px" viewBox="0 0 61 61" version="1.1" xmlns="http://www.w3.org/2000/svg" xmlns:xlink="http://www.w3.org/1999/xlink">
    <!-- Generator: Sketch 58 (84663) - https://sketch.com -->
    <title>Group 2</title>
    <desc>Created with Sketch.</desc>
    <g id="New-UI" stroke="none" stroke-width="1" fill="none" fill-rule="evenodd">
        <g id="1-desktop" transform="translate(-1323.000000, -601.000000)">
            <g id="Group-2" transform="translate(1323.000000, 601.000000)">
                <circle id="Oval" fill="#FFFFFF" cx="30.3999982" cy="30.3999982" r="30.3999982"></circle>
                <g id="Group" transform="translate(13.599999, 15.999999)" fill="#A850FF" fill-rule="nonzero">
                    <path d="M2.09439984,28.6272112 C0.940240488,28.6210748 0.0061229903,27.6869573 -1.11022302e-16,26.532798 L-1.11022302e-16,20.3503984 C-1.11022302e-16,19.7318396 0.501441042,19.2303985 1.11999991,19.2303985 L1.11999991,19.2303985 C1.73855879,19.2303985 2.23999983,19.7318396 2.23999983,20.3503984 L2.23999983,26.252798 L5.85759955,23.5199982 C6.40192155,23.1157326 7.06118246,22.895979 7.73919941,22.8927982 L24.7743981,22.8927982 C25.9372888,22.8927982 26.8799979,21.9500891 26.8799979,20.7871984 L26.8799979,9.30719929 C26.8738749,8.15303994 25.9397575,7.21892244 24.7855981,7.21279945 L4.33439967,7.21279945 C3.17769458,7.21279945 2.23999983,8.1504942 2.23999983,9.30719929 L2.23999983,10.8751992 C2.23999983,11.493758 1.73855879,11.9951991 1.11999991,11.9951991 L1.11999991,11.9951991 C0.501441042,11.9951991 -1.11022302e-16,11.493758 -1.11022302e-16,10.8751992 L-1.11022302e-16,9.30719929 C-1.11022302e-16,6.91337645 1.94057683,4.97279962 4.33439967,4.97279962 L24.7743981,4.97279962 C27.1700394,4.97279962 29.1138234,6.9115659 29.1199978,9.30719929 L29.1199978,20.7871984 C29.1199978,23.1828398 27.1812315,25.1266237 24.7855981,25.1327981 L7.73919941,25.1327981 C7.54163322,25.1311781 7.34893891,25.1940987 7.19039945,25.3119981 L3.35999974,28.2127978 C2.99370201,28.4834917 2.54986286,28.6288196 2.09439984,28.6272112 L2.09439984,28.6272112 Z" id="Path"></path>
                    <circle id="Oval" cx="18.9727985" cy="15.1535988" r="1.11999991"></circle>
                    <circle id="Oval" cx="14.6271989" cy="15.1535988" r="1.11999991"></circle>
                    <circle id="Oval" cx="10.1471992" cy="15.1535988" r="1.11999991"></circle>
                    <path d="M32.4799975,17.2927987 L32.4799975,17.2927987 C31.8614386,17.2927987 31.3599976,16.7913576 31.3599976,16.1727988 L31.3599976,4.82719963 C31.3538746,3.67304028 30.4197571,2.73892278 29.2655978,2.73279979 L6.71999949,2.73279979 C6.10144061,2.73279979 5.59999957,2.23135875 5.59999957,1.61279988 L5.59999957,1.61279988 C5.59999957,0.994241004 6.10144061,0.492799962 6.71999949,0.492799962 L29.2655978,0.492799962 C31.6568664,0.498955124 33.5938423,2.43593099 33.5999996,4.82719963 L33.5999996,16.1727988 C33.5999996,16.7913576 33.0985564,17.2927987 32.4799975,17.2927987 Z" id="Path"></path>
                </g>
            </g>
        </g>
    </g>
</svg>