<svg width="61" height="61" xmlns="http://www.w3.org/2000/svg">
 <!-- Created with Method Draw - http://github.com/duopixel/Method-Draw/ -->
 <g>
  <title>background</title>
  <rect fill="none" id="canvas_background" height="63" width="63" y="-1" x="-1"/>
 </g>
 <g>
  <title>Layer 1</title>
  <g id="svg_18">
   <g transform="matrix(0.983366, 0, 0, 0.983366, 8.54546, 9.57104)" fill-rule="evenodd" fill="none" id="svg_10">
    <g id="svg_9">
     <g id="svg_8">
      <circle r="30.399994" cy="21.083093" cx="22.327384" fill="#FFFFFF" id="svg_1"/>
      <g fill-rule="nonzero" fill="#A850FF" id="svg_7">
       <path id="svg_2" d="m7.621747,35.310291c-1.154175,-0.006104 -2.088257,-0.940247 -2.09436,-2.094421l0,-6.182371c0,-0.618591 0.501465,-1.119995 1.119995,-1.119995l0,0c0.61853,0 1.119995,0.501404 1.119995,1.119995l0,5.902403l3.617552,-2.732786c0.544434,-0.404297 1.203615,-0.624023 1.881716,-0.627197l17.035154,0c1.162842,0 2.105589,-0.942749 2.105589,-2.105591l0,-11.480042c-0.006104,-1.154175 -0.940184,-2.088257 -2.094358,-2.09436l-20.451294,0c-1.156616,0 -2.094358,0.937683 -2.094358,2.09436l0,1.567994c0,0.618591 -0.501464,1.119995 -1.119995,1.119995l0,0c-0.61853,0 -1.119995,-0.501404 -1.119995,-1.119995l0,-1.567994c0,-2.393799 1.940552,-4.334412 4.334348,-4.334412l20.440063,0c2.395628,0 4.339354,1.938782 4.345579,4.334412l0,11.480042c0,2.39563 -1.938721,4.339417 -4.334349,4.345581l-17.046385,0c-0.197632,-0.001648 -0.390259,0.061277 -0.548828,0.179197l-3.830446,2.900757c-0.366333,0.270752 -0.810181,0.416077 -1.265623,0.414429l0,0z"/>
       <circle r="1.119995" cy="21.836693" cx="24.500184" id="svg_3"/>
       <circle r="1.119995" cy="21.836693" cx="20.154585" id="svg_4"/>
       <circle r="1.119994" cy="21.836693" cx="15.674585" id="svg_5"/>
       <path id="svg_6" d="m38.007362,23.975882l0,0c-0.61853,0 -1.119995,-0.501404 -1.119995,-1.119995l0,-11.345582c-0.006104,-1.154175 -0.940186,-2.088318 -2.09436,-2.094421l-22.54565,0c-0.618532,0 -1.119997,-0.501404 -1.119997,-1.119995l0,0c0,-0.61853 0.501465,-1.119995 1.119997,-1.119995l22.54565,0c2.391235,0.006165 4.328247,1.943115 4.334351,4.334412l0,11.345582c0,0.618591 -0.501465,1.119995 -1.119995,1.119995z"/>
      </g>
     </g>
    </g>
   </g>
  </g>
 </g>
</svg>