<?xml version="1.0" encoding="UTF-8"?>
<svg width="67px" height="64px" viewBox="0 0 67 64" version="1.1" xmlns="http://www.w3.org/2000/svg" xmlns:xlink="http://www.w3.org/1999/xlink">
    <!-- Generator: Sketch 58 (84663) - https://sketch.com -->
    <title>Group 70</title>
    <desc>Created with Sketch.</desc>
    <defs>
        <polygon id="path-1" points="0.0431600039 0.089660008 10.3242009 0.089660008 10.3242009 18.8934617 0.0431600039 18.8934617"></polygon>
        <polygon id="path-3" points="0 63.6000057 66.3242059 63.6000057 66.3242059 0.0726000065 0 0.0726000065"></polygon>
    </defs>
    <g id="New-UI" stroke="none" stroke-width="1" fill="none" fill-rule="evenodd">
        <g id="1-desktop" transform="translate(-15.000000, -28.000000)">
            <g id="Group-70" transform="translate(15.000000, 28.000000)">
                <polygon id="Fill-1" fill="#4F4F4F" points="14.4715213 55.488245 6.07012054 53.6564448 16.1137214 47.1062442 24.9153222 48.8406444"></polygon>
                <polygon id="Fill-2" fill="#4F4F4F" points="14.5146013 48.8612844 5.92720053 46.9724842 16.4440015 40.5886836 24.9408022 42.2858838"></polygon>
                <polygon id="Fill-3" fill="#000000" points="5.90400053 41.1705637 16.6368015 34.5779631 16.6500015 40.4713636 5.90400053 47.0953642"></polygon>
                <polygon id="Fill-4" fill="#4F4F4F" points="14.6657213 42.8982838 5.77352052 41.2464837 16.6723215 34.5442831 25.0503222 36.2606832"></polygon>
                <polygon id="Fill-5" fill="#000000" points="14.4519013 48.7323844 24.8207022 42.1741838 24.9557022 48.8001844 14.8117013 55.2315849"></polygon>
                <polygon id="Fill-6" fill="#000000" points="18.7626417 43.5202639 29.3752426 36.8276633 29.3752426 49.8144645 18.7176417 56.343265"></polygon>
                <polygon id="Fill-7" fill="#4F4F4F" points="22.147562 56.5289651 18.6341617 55.880565 29.6475627 49.0447644 33.038163 49.8059645"></polygon>
                <polygon id="Fill-8" fill="#000000" points="28.2028225 47.9900843 38.6224235 41.3810837 38.6224235 51.1210846 28.2028225 57.7606852"></polygon>
                <polygon id="Fill-9" fill="#000000" points="28.2028225 45.5932241 38.6224235 38.9842235 38.6224235 40.0690236 28.2028225 46.9134242"></polygon>
                <polygon id="Fill-10" fill="#000000" points="34.4458031 46.5274042 45.288204 40.7110036 45.4028041 52.4802047 34.4454031 59.3092053"></polygon>
                <polygon id="Fill-11" fill="#4F4F4F" points="43.5448239 48.5446843 34.1168231 46.5204842 44.546024 40.1114836 53.5664248 41.9500838"></polygon>
                <polygon id="Fill-12" fill="#4F4F4F" points="42.6684638 60.5777854 34.8670631 59.0463853 45.4026641 52.4801847 52.3976647 53.7561848"></polygon>
                <polygon id="Fill-13" fill="#000000" points="45.9657641 48.9591244 56.136565 42.3945238 56.424965 55.1507249 46.1537641 61.8059255"></polygon>
                <polyline id="Fill-14" fill="#4F4F4F" points="56.136525 42.3944838 63.6327257 43.8914839 64.5637258 45.022284 54.2929249 51.6902846 53.5975248 50.4242845 45.9657241 48.9590844"></polyline>
                <polygon id="Fill-15" fill="#4F4F4F" points="54.5091849 63.1745656 46.3049841 61.6805655 56.9493851 54.7793649 64.9717858 56.388765"></polygon>
                <polygon id="Fill-16" fill="#4F4F4F" points="54.4225649 57.2065051 48.2921643 55.732905 56.6415651 50.3057045 62.0975656 52.1275047"></polygon>
                <polygon id="Fill-17" fill="#000000" points="54.5350049 51.5332646 64.5638058 45.022264 64.5638058 51.2972646 54.7240049 57.9970652"></polygon>
                <polygon id="Fill-18" fill="#4F4F4F" points="47.6481643 38.1944034 55.950365 39.8526036 66.3241659 33.454203 57.9467652 31.8294028"></polygon>
                <polygon id="Fill-19" fill="#000000" points="3.63486032 18.8488817 13.9116612 12.1808811 13.8866612 23.0118821 3.64866033 29.3560826"></polygon>
                <g id="Group-69" transform="translate(0.000000, 0.127400)">
                    <path d="M0.241980022,16.1832014 L0.870780078,6.21760056 L10.5257809,0.0726000065 L10.5429809,9.81460088 C10.5429809,9.81460088 10.5381809,10.876601 12.7347811,11.739601 C15.1499814,12.6884011 18.4589817,11.395601 18.4589817,11.395601 L8.16238073,17.7592016 C8.16238073,17.7592016 4.96418044,19.0396017 3.18378028,18.5450017 C0.909980081,17.9134016 0.241980022,16.1832014 0.241980022,16.1832014" id="Fill-20" fill="#4F4F4F"></path>
                    <polygon id="Fill-22" fill="#000000" points="8.16244073 17.7592616 8.16244073 8.06466072 18.4624417 1.71886015 18.4590417 11.395661"></polygon>
                    <polygon id="Fill-24" fill="#4F4F4F" points="44.933244 28.9444226 53.5514448 30.7762228 43.1698439 37.1368233 34.6916431 35.3208232"></polygon>
                    <polygon id="Fill-26" fill="#000000" points="10.5914409 18.2331016 20.6776418 11.8245011 21.0002419 24.3227022 10.5914409 30.6877027"></polygon>
                    <polygon id="Fill-28" fill="#4F4F4F" points="20.6776818 11.8244011 28.3700825 13.3610012 29.2382826 14.4720013 18.8302817 21.0162019 18.3140816 19.9152018 9.91028089 18.1726016"></polygon>
                    <polygon id="Fill-30" fill="#4F4F4F" points="19.4738817 32.2829029 10.780881 30.5007027 21.0002819 24.3227022 29.3118826 25.9827023"></polygon>
                    <polygon id="Fill-32" fill="#4F4F4F" points="19.0577617 26.9389624 12.2365611 24.9463622 20.5655618 19.9041618 27.6517625 21.6517619"></polygon>
                    <polygon id="Fill-34" fill="#000000" points="18.8302617 21.0161019 29.0426626 14.4719013 29.0426626 20.6617018 18.8588617 27.3183024"></polygon>
                    <polygon id="Fill-36" fill="#000000" points="24.8491622 9.05712081 35.1125631 2.64212024 35.2103631 26.9389224 24.9469622 33.333123"></polygon>
                    <polygon id="Fill-38" fill="#000000" points="29.2402826 9.85496088 39.4836835 3.42216031 39.5124835 27.7697625 29.2382826 34.4169631"></polygon>
                    <polygon id="Fill-40" fill="#000000" points="34.7045831 23.0605421 45.001184 16.6969415 44.914584 28.9631426 34.6049831 35.3925432"></polygon>
                    <polygon id="Fill-42" fill="#4F4F4F" points="45.001124 16.6968615 52.5341247 18.1586616 53.4889248 19.4926617 43.0293238 25.9848623 42.0475238 24.9790622 34.084323 23.2510621"></polygon>
                    <polygon id="Fill-44" fill="#000000" points="43.0293038 25.9848623 53.4889048 19.4928617 53.4905048 30.8270628 43.0293038 37.2290633"></polygon>
                    <polygon id="Fill-46" fill="#000000" points="47.5927643 25.3594623 57.9355652 19.0394617 57.9467652 31.7018628 47.5927643 38.1374634"></polygon>
                    <polygon id="Fill-48" fill="#000000" points="51.5347646 32.4773429 61.4903655 26.2407423 61.4903655 32.3401429 51.5347646 38.8119435"></polygon>
                    <g id="Group-52" transform="translate(56.000005, 20.800002)">
                        <mask id="mask-2" fill="white">
                            <use xlink:href="#path-1"></use>
                        </mask>
                        <g id="Clip-51"></g>
                        <polygon id="Fill-50" fill="#000000" mask="url(#mask-2)" points="0.0431600039 6.52246058 10.3243609 0.089660008 10.3243609 12.5266611 0.0499600045 18.8934617"></polygon>
                    </g>
                    <path d="M4.14428037,18.8372017 C4.10848037,18.8372017 4.07308036,18.8368017 4.03768036,18.8358017 C3.06428027,18.8102017 2.06168018,18.3298016 1.1384801,17.4466016 C0.45208004,16.7896015 0.0518800046,16.1472014 0.0350800031,16.1202014 L8.00000072e-05,16.0632014 L8.00000072e-05,6.12340055 L0.870680078,6.21760056 L0.870680078,15.7266014 C1.1102801,16.0866014 2.14508019,17.9152016 4.05008036,17.9654016 C5.44528049,18.0028016 6.80928061,17.3998016 7.29188065,17.1662015 L7.29188065,7.89340071 L8.16248073,7.98660071 L8.16248073,17.6550016 L8.03588072,17.7208016 C7.94648071,17.7674016 5.87168052,18.8372017 4.14428037,18.8372017" id="Fill-53" fill="#FFFFFF"></path>
                    <mask id="mask-4" fill="white">
                        <use xlink:href="#path-3"></use>
                    </mask>
                    <g id="Clip-56"></g>
                    <polygon id="Fill-55" fill="#FFFFFF" mask="url(#mask-4)" points="3.22620029 29.3952026 4.09680037 29.3952026 4.09680037 18.5694017 3.22620029 18.5694017"></polygon>
                    <path d="M19.3025817,32.9409029 L9.91018089,31.0875028 L9.91018089,18.1725016 L10.1897809,18.2261016 C10.2591809,18.2393016 17.1293815,19.5551017 17.6699816,19.6613018 C18.4423816,19.8131018 18.8763817,20.2697018 18.8587817,21.2225019 L18.8587817,27.3183024 L12.2365811,25.8277023 L12.2365811,24.9463022 L17.9881816,26.3301024 L17.9881816,21.2225019 C17.9881816,20.9881019 18.0581816,20.6393018 17.5759816,20.5447018 C17.0991815,20.4507018 12.0799811,19.4127017 10.777581,19.1631017 L10.780781,30.5007027 L19.3935817,32.2791029 L19.3025817,32.9409029 Z" id="Fill-57" fill="#FFFFFF" mask="url(#mask-4)"></path>
                    <polygon id="Fill-58" fill="#FFFFFF" mask="url(#mask-4)" points="24.8491622 34.099603 23.9785621 34.099603 23.9785621 8.9636008 24.8491622 9.07400081"></polygon>
                    <polygon id="Fill-59" fill="#FFFFFF" mask="url(#mask-4)" points="29.2426226 34.8750831 28.3718225 34.8750831 28.3718225 9.73908087 29.2426226 9.84948088"></polygon>
                    <path d="M34.9549231,35.3916032 L42.1967238,36.9580033 L42.2023238,35.5536032 C42.2291238,27.0434024 42.2291238,27.0434024 42.2291238,26.5726024 C42.2291238,26.0348023 41.8219237,25.7068023 41.2971237,25.5798023 C40.8247237,25.4658023 36.1985232,24.5354022 34.9519231,24.3052022 L34.9549231,35.3916032 Z M43.0655239,37.9288034 L34.084323,36.1796032 L34.084323,23.2510021 L34.3623231,23.3024021 C34.6273231,23.3512021 40.8611237,24.5008022 41.4105237,24.6336022 C42.0623238,24.7912022 43.0999239,25.7424023 43.0999239,26.5726024 C43.0999239,27.0440024 43.0999239,27.0440024 43.0731239,35.5550032 L43.0655239,37.9288034 Z" id="Fill-60" fill="#FFFFFF" mask="url(#mask-4)"></path>
                    <polygon id="Fill-61" fill="#FFFFFF" mask="url(#mask-4)" points="51.7718246 39.7477436 47.2144242 38.8315435 47.2144242 25.9199423 48.0852243 26.0141423 48.0726243 38.2073434 50.8886245 38.7257435 50.9010246 32.995943 51.7718246 33.090343"></polygon>
                    <polygon id="Fill-62" fill="#FFFFFF" mask="url(#mask-4)" points="56.080225 40.5835836 51.2604246 39.6207835 51.2584246 38.7813835 55.2094249 39.6093835 55.2094249 27.5757825 56.080225 27.6697825"></polygon>
                    <polygon id="Fill-63" fill="#FFFFFF" mask="url(#mask-4)" points="14.8117613 55.875285 6.03196054 54.1790848 6.03196054 53.2948848 13.9409612 54.9050849 13.9409612 49.1930844 5.77356052 47.4564842 5.77356052 41.1492837 14.7625613 42.8156838 14.7625613 43.6962839 6.64416059 42.1152838 6.64416059 46.6714842 14.8117613 48.4080843"></polygon>
                    <polygon id="Fill-64" fill="#FFFFFF" mask="url(#mask-4)" points="22.097562 57.3709851 17.8629616 56.433185 17.8629616 43.4025839 18.7335617 43.5039839 18.7191617 55.770985 22.191562 56.401585"></polygon>
                    <polygon id="Fill-65" fill="#FFFFFF" mask="url(#mask-4)" points="28.2449225 58.1054652 27.3743224 58.1054652 27.3743224 47.8508643 28.2449225 47.9444643"></polygon>
                    <polygon id="Fill-66" fill="#FFFFFF" mask="url(#mask-4)" points="28.2449225 46.7860242 27.3743224 46.6920242 27.3743224 45.3510241 28.2435225 45.4452241"></polygon>
                    <polygon id="Fill-67" fill="#FFFFFF" mask="url(#mask-4)" points="42.6975638 61.4345655 34.1167631 59.7435653 34.1167631 46.3929641 43.5455639 48.3505643 43.5455639 49.4303644 34.9873631 47.6425643 34.9873631 58.9641653 42.6975638 60.5745654"></polygon>
                    <path d="M54.7475649,63.6000057 L45.9657641,61.7466055 L45.9657641,48.8318044 L46.2453641,48.8852044 C46.3147641,48.8984044 53.1849648,50.2142045 53.7255648,50.3204045 C54.4979649,50.4724045 54.9319649,50.9288046 54.9143649,51.8816046 L54.9143649,57.9774052 L48.2921643,56.4868051 L48.2921643,55.605605 L54.0437648,56.9892051 L54.0437648,51.8816046 C54.0437648,51.6472046 54.1137648,51.2986046 53.6315648,51.2038046 C53.1547648,51.1100046 48.1355643,50.0718045 46.8331642,49.8224045 L46.8363642,61.2524055 L54.8385649,62.9382056 L54.7475649,63.6000057 Z" id="Fill-68" fill="#FFFFFF" mask="url(#mask-4)"></path>
                </g>
            </g>
        </g>
    </g>
</svg>