<?xml version="1.0" encoding="UTF-8"?>
<svg width="33px" height="33px" viewBox="0 0 33 33" version="1.1" xmlns="http://www.w3.org/2000/svg" xmlns:xlink="http://www.w3.org/1999/xlink">
    <!-- Generator: Sketch 58 (84663) - https://sketch.com -->
    <title>Shape</title>
    <desc>Created with Sketch.</desc>
    <g id="New-UI" stroke="none" stroke-width="1" fill="none" fill-rule="evenodd">
        <g id="2-desktop" transform="translate(-1329.000000, -596.000000)" fill="#A850FF" fill-rule="nonzero">
            <path d="M1343.07133,615.778887 C1343.51764,616.111345 1343.96473,616.444984 1344.41221,616.77823 C1343.94503,617.239102 1343.47706,617.700368 1343.01146,618.160846 C1342.96813,618.205357 1342.92756,618.251838 1342.88501,618.297138 L1342.90747,617.992253 C1342.96104,617.254858 1343.015,616.516282 1343.07133,615.778887 Z M1346.74299,609.277836 C1344.47287,610.70969 1342.20276,612.145483 1339.93146,613.576549 C1339.88537,613.605305 1339.83495,613.627757 1339.78374,613.650998 C1340.08115,614.601891 1340.37855,615.553178 1340.67517,616.504858 C1340.88709,617.174501 1341.10689,617.842568 1341.30739,618.514968 C1341.39012,618.793855 1341.5335,618.943146 1341.83603,618.890362 C1341.91993,617.752363 1342.00029,616.615152 1342.08616,615.476759 C1342.09601,615.344013 1342.11176,615.209296 1342.12791,615.076549 C1341.9995,615.002889 1342.05583,614.86187 1342.10034,614.815389 C1342.17873,614.734638 1342.25712,614.652311 1342.33551,614.570378 C1342.36347,614.54438 1342.39262,614.517988 1342.4198,614.491991 C1342.45919,614.451024 1342.4974,614.410058 1342.5364,614.369485 C1342.7243,614.19459 1342.91141,614.016544 1343.0993,613.840861 C1343.20645,613.739627 1343.31477,613.637999 1343.42231,613.537159 C1343.7138,613.264181 1344.00491,612.991597 1344.30152,612.722952 C1345.05547,612.037553 1345.82478,611.36791 1346.5803,610.685268 C1347.54342,609.813944 1348.50417,608.93947 1349.45823,608.058298 C1349.52834,607.961003 1349.57364,607.835741 1349.63509,607.728598 C1349.46414,607.751444 1349.26363,607.723083 1349.12774,607.803046 C1348.32455,608.281644 1347.53436,608.779149 1346.74299,609.277836 Z M1362,612.5 C1362,621.612658 1354.61257,629 1345.4998,629 C1336.38664,629 1329,621.612658 1329,612.5 C1329,603.386949 1336.38664,596 1345.4998,596 C1354.61257,596 1362,603.386949 1362,612.5 Z M1352.86793,605.926471 C1352.85927,605.863445 1352.85296,605.798845 1352.84036,605.737001 C1352.695,605.036633 1352.31133,604.825105 1351.62435,605.060268 C1351.52351,605.094144 1351.4203,605.116203 1351.31789,605.14417 C1350.93461,605.302521 1350.55527,605.471901 1350.16648,605.617253 C1349.52204,605.860294 1348.8713,606.087579 1348.22134,606.321954 C1347.82507,606.487001 1347.43155,606.659533 1347.03173,606.815914 C1346.03001,607.207458 1345.02632,607.591518 1344.02303,607.979123 C1341.95814,608.77521 1339.89286,609.570903 1337.82639,610.366991 C1337.36236,610.546218 1336.8944,610.715993 1336.43509,610.907038 C1336.03133,611.073661 1335.6193,611.235163 1335.24745,611.458902 C1335.08279,611.557773 1334.90159,611.817752 1334.9205,611.982799 C1334.93862,612.149422 1335.19348,612.292017 1335.34947,612.440914 C1335.37783,612.468093 1335.42628,612.476759 1335.46725,612.489364 C1336.56193,612.828125 1337.65662,613.166886 1338.75209,613.504858 C1338.74618,613.619091 1338.75918,613.735688 1338.79502,613.851103 L1339.19327,615.128545 L1339.71678,616.804622 C1339.77823,616.999212 1339.84007,617.190257 1339.90073,617.381303 C1340.04963,617.848083 1340.20444,618.330226 1340.34507,618.802127 C1340.65153,619.825893 1341.47796,619.905068 1341.72415,619.905068 C1341.76079,619.905068 1341.79979,619.902705 1341.83839,619.901129 C1341.8762,619.902705 1341.91402,619.903887 1341.95144,619.903887 C1342.58367,619.903887 1342.98979,619.555672 1343.23166,619.347295 C1343.27617,619.308298 1343.31871,619.272453 1343.34944,619.248818 C1343.39946,619.211397 1343.44634,619.170825 1343.48652,619.125525 C1343.51803,619.092831 1343.54679,619.058955 1343.57791,619.026654 C1343.62872,618.969932 1343.67638,618.916754 1343.71853,618.875 C1344.08605,618.511029 1344.45278,618.148241 1344.82109,617.785058 L1345.25755,617.354517 C1345.319,617.397059 1345.38045,617.439207 1345.44229,617.481355 C1346.43534,618.222689 1347.42682,618.967568 1348.42342,619.704963 C1349.16713,620.254858 1349.68709,620.112264 1350.04713,619.272059 C1350.20036,618.563419 1350.3528,617.853204 1350.50485,617.14614 C1350.6443,616.439076 1350.78217,615.733981 1350.92004,615.028493 C1351.00867,614.640888 1351.09611,614.252101 1351.18356,613.86489 C1351.41597,612.772978 1351.64799,611.679884 1351.87921,610.587579 C1351.95445,610.238971 1352.02811,609.890756 1352.10295,609.542148 C1352.12107,609.459428 1352.14274,609.376313 1352.15928,609.292805 C1352.39642,608.170562 1352.63198,607.049107 1352.86793,605.926471 Z" id="Shape"></path>
        </g>
    </g>
</svg>